<svg width="619" height="346" viewBox="0 0 619 346" fill="none" xmlns="http://www.w3.org/2000/svg">
<path d="M182.801 107.124C180.584 106.82 178.557 106.466 176.701 106.059C176.167 105.942 175.643 105.819 175.135 105.694C161.666 102.387 157.726 96.3043 153.802 89.7707C149.216 82.1353 143.194 80.3315 129.967 64.8885C116.741 49.4455 120.838 59.2291 118.19 43.3074C115.543 27.3872 116.343 27.7301 125.837 23.7971C135.326 19.8598 131.196 11.0058 156.693 2.79102C166.641 -0.41375 172.204 1.19884 175.285 4.35837C175.295 4.36567 175.307 4.37733 175.317 4.38902C177.086 6.2176 178.96 7.98635 180.969 9.65733C182.121 10.619 183.317 11.5472 184.564 12.4389C190.578 16.7338 196.3 21.8635 198.477 25.6476C201.66 31.1757 201.449 32.8087 204.885 36.2733C206.386 37.7852 208.583 39.6502 212.064 42.3457C214.92 44.5552 216.501 46.4232 217.455 48.4006C220.318 54.3329 217.537 61.243 226.834 81.3969C236.716 102.822 215.412 108.159 196.341 108.07C191.5 108.042 186.808 107.671 182.801 107.124Z" fill="#A170E8"/>
<path d="M175.152 105.576C161.684 102.269 157.744 96.1861 153.819 89.6525C149.234 82.0171 143.211 80.2134 129.985 64.7703C116.759 49.3273 120.855 59.1124 118.208 43.1907C115.561 27.269 116.36 27.6119 125.854 23.6789C135.345 19.7416 131.214 10.8876 156.71 2.67283C166.659 -0.531944 172.221 1.08066 175.303 4.24018C175.313 4.24748 175.325 4.25916 175.335 4.27084C177.104 6.09942 178.976 7.86817 180.987 9.53915C177.098 11.2043 173.419 12.7556 171.335 13.7232C165.439 16.4551 162.59 12.6038 161.821 23.0135C161.052 33.4231 172.096 38.3689 161.173 40.1421C150.248 41.9137 158.845 42.28 147.617 42.175C136.389 42.0699 126.178 34.9219 135.029 48.351C143.88 61.7816 148.506 58.2484 154.105 68.5574C159.706 78.8649 155.368 64.8812 163.782 89.8539C166.055 96.5962 170.245 101.708 175.152 105.576Z" fill="#7253AD"/>
<path d="M182.802 107.124C180.585 106.82 178.558 106.466 176.702 106.059C175.822 102.829 175.909 99.8082 179.832 100.725C187.625 102.549 196.165 104.404 198.923 100.792C201.68 97.1799 205.82 96.6108 206.074 89.9079C206.328 83.2065 207.204 89.7255 204.224 79.4574C201.244 69.1907 202.964 63.2978 202.964 63.2978C202.964 63.2978 210.2 69.9452 204.24 59.2495C198.281 48.5524 189.75 46.3283 197.069 41.0425C200.278 38.7221 202.881 37.3065 204.886 36.2733C206.387 37.7852 208.584 39.6502 212.065 42.3457C214.921 44.5552 216.501 46.4232 217.456 48.4006C220.319 54.3329 217.538 61.243 226.835 81.3969C236.717 102.822 215.413 108.159 196.342 108.07C191.501 108.042 186.809 107.671 182.802 107.124Z" fill="#A67FDD"/>
<path d="M181.318 93.6188C176.901 93.0569 173.655 89.8814 174.069 86.5248C174.482 83.1683 178.398 80.9033 182.815 81.4652C187.233 82.0271 190.478 85.2026 190.064 88.5592C189.651 91.9157 185.736 94.1807 181.318 93.6188Z" fill="#493684"/>
<path d="M174.32 88.73C172.953 87.4341 172.21 85.7675 172.421 84.0542C172.834 80.6991 176.753 78.4327 181.169 78.9945C184.595 79.4309 187.32 81.4404 188.172 83.8878C186.866 82.6459 184.981 81.7396 182.818 81.4653C178.4 80.9034 174.483 83.1698 174.07 86.5263C173.977 87.2779 174.068 88.0222 174.32 88.73Z" fill="#BA9EEF"/>
<path d="M196.341 108.07C197.857 107.172 200.129 106.292 203.279 104.396C209.382 100.731 206.685 103.423 216.897 100.688C227.109 97.9534 217.169 98.4627 218.085 95.2229C219.005 91.9802 220.981 91.7248 222.415 88.4296C223.851 85.1343 222.126 86.1792 220.56 83.0328C218.996 79.885 218.088 79.1086 218.135 72.953C218.18 66.7974 218.367 66.8134 218.436 65.0257C218.503 63.2351 214.946 58.2761 215.129 53.469C215.203 51.4959 216.181 49.7957 217.455 48.4006C220.32 54.3329 217.538 61.2445 226.834 81.3983C236.716 102.822 215.412 108.159 196.341 108.07Z" fill="#BA9EEF"/>
<path d="M405.346 39.087C402.798 40.9375 400.518 42.7252 398.487 44.4647C397.9 44.9638 397.334 45.4644 396.788 45.9577C382.289 59.0132 381.515 69.1528 381.067 79.8383C380.541 92.3276 374.278 98.5678 368.306 126.459C362.333 154.349 360.792 139.531 368.291 160.969C375.791 182.407 376.551 181.45 391.015 179.99C405.477 178.537 406.343 192.23 443.597 185.407C458.134 182.744 463.954 177.048 465.643 171.091C465.65 171.075 465.656 171.053 465.662 171.031C466.622 167.594 467.75 164.162 469.116 160.757C469.894 158.802 470.753 156.859 471.697 154.927C476.262 145.615 479.896 135.466 480.039 129.34C480.248 120.388 478.879 118.513 480.802 111.941C481.643 109.077 483.111 105.307 485.61 99.6594C487.661 95.0274 488.359 91.665 488.207 88.5872C487.746 79.3494 479.606 72.6597 477.503 41.5635C475.266 8.5074 445.175 16.0976 421.532 28.9035C415.535 32.1594 409.956 35.7421 405.346 39.087Z" fill="#A170E8"/>
<path d="M396.891 46.0937C382.392 59.1477 381.617 69.2888 381.168 79.9743C380.644 92.4636 374.38 98.7024 368.407 126.594C362.435 154.485 360.894 139.665 368.394 161.103C375.894 182.543 376.654 181.586 391.118 180.125C405.58 178.671 406.445 192.364 443.7 185.542C458.237 182.88 464.057 177.183 465.745 171.227C465.753 171.21 465.759 171.188 465.764 171.166C466.725 167.729 467.853 164.297 469.219 160.893C463.257 161.424 457.633 161.957 454.387 162.15C445.209 162.698 444.278 169.353 436.269 157.001C428.26 144.649 438.635 131.183 423.856 136.266C409.078 141.349 419.516 135.173 405.633 142.778C391.75 150.383 383.901 166.016 385.801 143.527C387.701 121.037 395.845 122.322 395.82 105.855C395.794 89.3887 399.878 109.557 393.413 73.0934C391.668 63.2485 393.412 54.1406 396.891 46.0937Z" fill="#7253AD"/>
<path d="M405.345 39.0845C402.797 40.935 400.518 42.7227 398.486 44.4623C399.579 49.0403 401.736 52.715 405.99 48.9703C414.44 41.5275 423.798 33.5492 429.672 36.1775C435.547 38.8044 441.078 36.7525 445.935 44.8651C450.791 52.9792 447.463 44.3397 450.716 59.0122C453.969 73.6847 460.101 79.8228 460.101 79.8228C460.101 79.8228 464.59 66.7892 464.431 83.9761C464.272 101.162 455.177 109.591 467.853 111.252C473.416 111.983 477.61 111.997 480.802 111.939C481.642 109.074 483.111 105.305 485.609 99.657C487.661 95.025 488.358 91.6626 488.207 88.5848C487.746 79.347 479.605 72.6573 477.502 41.5611C475.265 8.50499 445.174 16.0952 421.531 28.9011C415.535 32.1569 409.955 35.7397 405.345 39.0845Z" fill="#A67FDD"/>
<path d="M460.471 129.659C448.203 128.96 448.425 137.264 451.402 137.674C453.947 139.008 457.202 138.258 460.157 138.18C463.063 137.721 465.614 137.904 468.488 136.404C469.887 135.667 471.156 133.198 470.25 131.911C469.399 130.444 466.369 130.16 460.471 129.659Z" fill="#493684"/>
<path d="M450.034 136.272C449.944 138.248 451.348 139.36 452.537 140.071C454.862 141.341 457.178 140.399 459.316 139.983C460.917 139.5 462.376 138.734 464.249 137.669C462.91 137.872 461.626 138.054 460.158 138.18C457.204 138.256 453.948 139.006 451.402 137.672C450.831 137.338 450.338 136.888 450.034 136.272Z" fill="#BA9EEF"/>
<path d="M404.727 117.997C400.432 118.852 397.738 123.023 397.751 127.155C397.641 131.718 400.88 133.443 405.107 131.301C409.004 129.29 415.154 129.154 415.549 124.903C415.281 120.598 408.445 117.133 404.727 117.997Z" fill="#493684"/>
<path d="M398.147 124.392C396.839 126.05 396.009 128.157 395.844 130.463C395.294 135.453 399.532 136.878 403.047 133.733C405.682 131.473 409.086 130.46 411.484 128.979C409.42 129.692 407.192 130.437 405.108 131.299C400.88 133.443 397.64 131.717 397.751 127.153C397.753 126.209 397.887 125.278 398.147 124.392Z" fill="#BA9EEF"/>
<path d="M447.724 77.0035C444.166 78.4833 442.833 82.3302 444.558 84.4288C446.391 86.7317 449.59 87.4439 451.292 86.1786C453.012 84.9264 454.123 82.0471 454.173 79.572C453.821 76.4475 450.988 75.0115 447.724 77.0035Z" fill="#493684"/>
<path d="M443.868 82.7955C443.334 84.0783 443.321 84.9758 444.188 85.9127C446.201 88.0536 449.637 89.1321 451.24 88.1251C452.757 87.6742 453.283 85.7186 453.303 83.388C452.823 84.5759 452.223 85.6062 451.289 86.1783C449.589 87.4436 446.389 86.7314 444.556 84.4271C444.187 83.9265 443.958 83.3865 443.868 82.7955Z" fill="#BA9EEF"/>
<path d="M447.576 98.5178C446.26 99.0898 445.631 100.554 446.174 101.788C446.715 103.021 448.223 103.557 449.539 102.985C450.855 102.413 451.483 100.949 450.941 99.7145C450.4 98.4813 448.892 97.9457 447.576 98.5178Z" fill="#493684"/>
<path d="M445.981 100.935C445.711 101.536 445.683 102.225 445.959 102.855C446.502 104.089 448.01 104.624 449.326 104.052C450.348 103.608 450.955 102.626 450.921 101.632C450.664 102.209 450.184 102.705 449.539 102.985C448.223 103.557 446.715 103.02 446.174 101.787C446.053 101.511 445.988 101.222 445.981 100.935Z" fill="#BA9EEF"/>
<path d="M404.96 98.7757C404.243 99.2121 403.937 100.091 404.104 100.82C404.306 101.617 405.065 101.427 405.907 101.025C406.753 100.728 407.776 100.342 407.251 99.4529C406.642 98.659 405.618 98.3467 404.96 98.7757Z" fill="#493684"/>
<path d="M404.063 100.311C403.888 100.684 403.793 101.141 403.885 101.521C404.126 102.348 404.959 101.912 405.6 101.397C406.147 101.029 406.879 100.947 407.075 100.482C406.773 100.714 406.335 100.844 405.909 101.023C405.067 101.426 404.307 101.614 404.105 100.819C404.063 100.658 404.051 100.485 404.063 100.311Z" fill="#BA9EEF"/>
<path d="M421.106 90.7905C420.352 91.1188 419.991 91.958 420.302 92.6643C420.613 93.3721 421.477 93.6786 422.231 93.3502C422.986 93.0233 423.346 92.1842 423.035 91.4764C422.725 90.77 421.861 90.4621 421.106 90.7905Z" fill="#493684"/>
<path d="M420.192 92.1757C420.037 92.5201 420.021 92.9156 420.18 93.2761C420.49 93.9824 421.355 94.2904 422.11 93.962C422.695 93.7081 423.042 93.1462 423.023 92.5756C422.877 92.9054 422.602 93.19 422.232 93.3505C421.476 93.6789 420.612 93.371 420.303 92.6646C420.233 92.5056 420.196 92.3406 420.192 92.1757Z" fill="#BA9EEF"/>
<path d="M430.679 99.0225C429.731 98.8386 428.69 100.085 428.351 101.805C428.012 103.526 428.506 105.069 429.451 105.253C430.398 105.436 431.44 104.19 431.779 102.47C432.118 100.749 431.626 99.2064 430.679 99.0225Z" fill="#493684"/>
<path d="M428.677 100.731C428.244 101.235 427.888 101.989 427.714 102.868C427.376 104.588 427.869 106.132 428.815 106.315C429.55 106.458 430.343 105.74 430.818 104.606C430.402 105.09 429.915 105.344 429.452 105.254C428.505 105.07 428.012 103.527 428.351 101.807C428.428 101.42 428.539 101.058 428.677 100.731Z" fill="#BA9EEF"/>
<path d="M432.517 125.965C431.827 126.264 431.475 126.979 431.73 127.56C431.984 128.141 432.752 128.368 433.441 128.068C434.131 127.768 434.484 127.053 434.229 126.472C433.973 125.892 433.207 125.665 432.517 125.965Z" fill="#493684"/>
<path d="M431.647 127.156C431.496 127.449 431.468 127.78 431.599 128.077C431.853 128.657 432.621 128.885 433.31 128.584C433.845 128.352 434.178 127.871 434.181 127.395C434.036 127.675 433.779 127.922 433.441 128.069C432.752 128.368 431.984 128.141 431.729 127.56C431.672 127.43 431.646 127.293 431.647 127.156Z" fill="#BA9EEF"/>
<path d="M421.532 28.902C424.024 29.0012 427.445 28.5765 432.643 28.8217C442.713 29.2902 437.537 27.7578 452.082 24.3386C466.626 20.9193 453.927 26.9085 457.262 30.3015C460.602 33.696 463.23 32.6963 467.247 35.8135C471.264 38.9308 468.413 38.7863 468.599 43.7175C468.786 48.6501 468.186 50.2131 472.414 57.7901C476.642 65.3657 476.864 65.2227 478.158 67.3855C479.456 69.5541 478.396 78.0491 481.88 83.869C483.31 86.258 485.678 87.7072 488.207 88.5857C487.746 79.3479 479.606 72.6582 477.503 41.562C475.266 8.50589 445.175 16.0946 421.532 28.902Z" fill="#BA9EEF"/>
<path d="M250.738 153.587C248.12 152.825 245.688 152.215 243.418 151.748C242.765 151.612 242.121 151.49 241.492 151.379C224.851 148.386 217.424 153.223 209.793 158.573C200.873 164.825 193.269 163.851 170.831 174.533C148.392 185.216 157.841 176.321 146.937 192.79C136.034 209.259 137.095 209.272 145.695 218.378C154.288 227.486 145.264 235.324 169.532 257.158C179.003 265.678 186 266.637 191.008 264.637C191.024 264.634 191.042 264.627 191.059 264.62C193.941 263.455 196.91 262.409 199.983 261.541C201.745 261.037 203.54 260.595 205.373 260.218C214.213 258.406 223.143 255.518 227.46 252.371C233.765 247.777 234.345 245.849 239.901 243.685C242.327 242.742 245.705 241.75 250.927 240.467C255.209 239.417 257.901 238.115 259.951 236.381C266.104 231.177 266.463 222.076 286.883 204.18C308.588 185.156 287.548 168.621 266.279 159.252C260.88 156.879 255.473 154.964 250.738 153.587Z" fill="#A170E8"/>
<path d="M241.452 151.52C224.81 148.527 217.384 153.365 209.753 158.715C200.834 164.967 193.229 163.99 170.79 174.674C148.352 185.357 157.8 176.462 146.897 192.931C135.993 209.4 137.055 209.413 145.654 218.519C154.248 227.627 145.224 235.466 169.492 257.299C178.962 265.819 185.958 266.778 190.967 264.778C190.983 264.776 191.002 264.768 191.019 264.761C193.902 263.596 196.87 262.55 199.942 261.683C196.447 257.892 193.127 254.332 191.291 252.218C186.095 246.239 181.001 249.125 185.348 237.118C189.696 225.108 204.459 225.068 193.187 217.664C181.916 210.262 191.666 214.121 179.118 208.664C166.571 203.208 151.633 206.122 168.196 195.515C184.759 184.91 188.141 191.152 199.526 182.419C210.911 173.686 199.094 187.15 220.939 163.436C226.838 157.033 234.058 153.403 241.452 151.52Z" fill="#7253AD"/>
<path d="M250.74 153.588C248.122 152.826 245.689 152.216 243.42 151.749C240.823 154.92 239.412 158.336 244.235 159.26C253.821 161.093 264.252 163.26 265.516 168.663C266.78 174.067 271.102 176.758 268.035 184.37C264.967 191.982 269.201 185.135 260.751 195.123C252.303 205.111 251.271 212.549 251.271 212.549C251.271 212.549 262.647 208.715 250.668 217.703C238.69 226.692 228.085 224.94 233.586 234.477C235.999 238.664 238.189 241.536 239.903 243.686C242.328 242.743 245.706 241.751 250.928 240.468C255.21 239.417 257.902 238.116 259.953 236.382C266.105 231.178 266.464 222.077 286.884 204.181C308.589 185.157 287.549 168.622 266.281 159.253C260.881 156.88 255.474 154.965 250.74 153.588Z" fill="#A67FDD"/>
<path d="M216.97 239.176C211.018 230.427 205.387 234.974 206.664 237.223C207.077 239.669 209.304 241.493 210.906 243.471C212.749 245.212 213.962 247.052 216.508 248.222C217.75 248.787 220.126 248.348 220.542 247.046C221.111 245.689 219.719 243.469 216.97 239.176Z" fill="#493684"/>
<path d="M206.915 235.552C205.501 236.535 205.468 238.082 205.599 239.272C205.941 241.532 207.807 242.615 209.217 243.855C210.39 244.693 211.688 245.284 213.407 245.999C212.565 245.192 211.765 244.411 210.907 243.476C209.304 241.499 207.077 239.671 206.664 237.227C206.597 236.659 206.65 236.084 206.915 235.552Z" fill="#BA9EEF"/>
<path d="M195.794 194.932C192.95 192.451 188.647 192.819 185.796 195.015C182.579 197.355 183.084 200.479 186.787 202.233C190.222 203.83 193.544 207.96 196.693 205.978C199.531 203.516 198.343 197.015 195.794 194.932Z" fill="#493684"/>
<path d="M187.917 193.821C186.084 193.807 184.189 194.354 182.507 195.462C178.763 197.727 180.001 201.377 184.022 202.112C186.969 202.715 189.456 204.505 191.739 205.359C190.163 204.326 188.48 203.199 186.789 202.232C183.088 200.479 182.581 197.353 185.798 195.012C186.453 194.513 187.166 194.113 187.917 193.821Z" fill="#BA9EEF"/>
<path d="M246.728 202.602C243.836 200.954 240.477 202.081 239.928 204.369C239.296 206.841 240.481 209.402 242.25 209.894C244.02 210.408 246.596 209.642 248.335 208.365C250.313 206.472 249.821 203.778 246.728 202.602Z" fill="#493684"/>
<path d="M240.697 203.036C239.53 203.35 238.901 203.817 238.708 204.906C238.281 207.413 239.339 210.332 240.877 210.892C241.985 211.69 243.613 211.015 245.238 209.795C244.163 210.094 243.136 210.231 242.25 209.895C240.481 209.403 239.296 206.841 239.928 204.369C240.082 203.852 240.336 203.41 240.697 203.036Z" fill="#BA9EEF"/>
<path d="M231.761 213.886C230.674 213.289 229.332 213.635 228.762 214.658C228.193 215.681 228.612 216.994 229.699 217.591C230.787 218.187 232.129 217.841 232.698 216.818C233.267 215.795 232.849 214.483 231.761 213.886Z" fill="#493684"/>
<path d="M229.249 214.076C228.691 214.209 228.199 214.556 227.909 215.077C227.34 216.102 227.759 217.414 228.846 218.011C229.689 218.473 230.688 218.37 231.357 217.819C230.825 217.949 230.229 217.884 229.697 217.592C228.609 216.995 228.191 215.681 228.76 214.658C228.887 214.429 229.053 214.234 229.249 214.076Z" fill="#BA9EEF"/>
<path d="M209.222 184.916C208.545 184.658 207.774 184.913 207.359 185.414C206.912 185.973 207.442 186.392 208.163 186.754C208.812 187.175 209.616 187.669 209.956 186.84C210.185 186.004 209.864 185.138 209.222 184.916Z" fill="#493684"/>
<path d="M207.689 185.116C207.338 185.194 206.972 185.369 206.759 185.635C206.311 186.236 207.051 186.575 207.744 186.741C208.286 186.918 208.726 187.376 209.151 187.264C208.833 187.179 208.512 186.95 208.164 186.753C207.444 186.391 206.914 185.972 207.36 185.413C207.449 185.299 207.563 185.199 207.689 185.116Z" fill="#BA9EEF"/>
<path d="M223.222 191.72C222.599 191.379 221.83 191.577 221.503 192.164C221.176 192.749 221.417 193.502 222.04 193.844C222.663 194.185 223.434 193.988 223.759 193.402C224.086 192.815 223.845 192.062 223.222 191.72Z" fill="#493684"/>
<path d="M221.782 191.827C221.463 191.904 221.181 192.101 221.015 192.401C220.688 192.987 220.928 193.74 221.552 194.082C222.035 194.347 222.607 194.288 222.991 193.972C222.686 194.047 222.344 194.009 222.039 193.842C221.416 193.501 221.175 192.748 221.502 192.161C221.575 192.03 221.67 191.918 221.782 191.827Z" fill="#BA9EEF"/>
<path d="M222.547 202.611C222.178 201.868 220.768 201.816 219.399 202.494C218.032 203.174 217.222 204.327 217.591 205.07C217.96 205.814 219.37 205.867 220.739 205.187C222.106 204.508 222.916 203.355 222.547 202.611Z" fill="#493684"/>
<path d="M220.315 202.151C219.739 202.122 219.03 202.278 218.332 202.624C216.963 203.304 216.153 204.457 216.522 205.201C216.81 205.777 217.722 205.938 218.757 205.664C218.204 205.636 217.773 205.439 217.591 205.074C217.221 204.331 218.031 203.177 219.4 202.497C219.707 202.345 220.016 202.23 220.315 202.151Z" fill="#BA9EEF"/>
<path d="M204.861 218.13C204.291 217.818 203.611 217.955 203.344 218.437C203.076 218.918 203.321 219.562 203.89 219.874C204.459 220.187 205.139 220.049 205.406 219.568C205.675 219.086 205.43 218.443 204.861 218.13Z" fill="#493684"/>
<path d="M203.581 218.165C203.299 218.218 203.055 218.374 202.918 218.619C202.649 219.101 202.895 219.746 203.464 220.058C203.906 220.3 204.414 220.273 204.744 220.022C204.475 220.073 204.169 220.027 203.89 219.874C203.319 219.562 203.076 218.917 203.344 218.435C203.404 218.329 203.484 218.237 203.581 218.165Z" fill="#BA9EEF"/>
<path d="M256.228 190.56C255.658 190.248 254.978 190.385 254.711 190.867C254.443 191.348 254.686 191.992 255.257 192.304C255.826 192.617 256.505 192.479 256.773 191.998C257.042 191.516 256.797 190.873 256.228 190.56Z" fill="#493684"/>
<path d="M254.944 190.597C254.662 190.65 254.418 190.806 254.281 191.051C254.013 191.533 254.258 192.178 254.827 192.49C255.269 192.732 255.777 192.704 256.107 192.453C255.837 192.505 255.532 192.459 255.253 192.306C254.683 191.994 254.439 191.349 254.707 190.867C254.767 190.759 254.848 190.669 254.944 190.597Z" fill="#BA9EEF"/>
<path d="M242.341 167.937C237.144 166.371 231.944 168.308 230.727 172.263C229.51 176.216 232.735 180.69 237.932 182.255C243.129 183.821 248.328 181.884 249.546 177.931C250.763 173.976 247.537 169.503 242.341 167.937Z" fill="#493684"/>
<path d="M232.105 169.922C229.935 170.69 228.276 172.184 227.656 174.201C226.439 178.154 229.665 182.63 234.861 184.196C238.893 185.41 242.929 184.517 245.101 182.207C243.027 182.947 240.475 183.021 237.931 182.255C232.734 180.689 229.508 176.213 230.725 172.26C230.998 171.374 231.47 170.587 232.105 169.922Z" fill="#BA9EEF"/>
<path d="M266.28 159.255C267.519 161.01 269.607 163.121 272.165 166.801C277.124 173.927 275.469 169.58 285.467 177.704C295.464 185.828 284.656 180.325 284.058 184.398C283.461 188.477 285.531 189.742 285.48 194.135C285.431 198.529 284.034 196.505 280.718 199.243C277.404 201.981 276.006 202.4 272.981 209.296C269.956 216.195 270.172 216.269 269.353 218.299C268.533 220.334 262.097 224.106 259.896 229.566C258.994 231.807 259.232 234.192 259.952 236.384C266.104 231.18 266.463 222.079 286.883 204.183C308.588 185.159 287.548 168.624 266.28 159.255Z" fill="#BA9EEF"/>
<path d="M246.822 289.627C245.798 289.783 244.861 289.962 244.004 290.164C243.757 290.222 243.515 290.283 243.282 290.345C237.068 291.973 235.3 294.816 233.545 297.866C231.491 301.431 228.717 302.31 222.734 309.55C216.75 316.79 218.554 312.234 217.483 319.617C216.41 326.999 216.777 326.835 221.218 328.584C225.657 330.334 223.827 334.46 235.729 338.072C240.373 339.48 242.937 338.693 244.335 337.209C244.34 337.205 244.346 337.2 244.35 337.195C245.153 336.336 246.003 335.503 246.92 334.717C247.444 334.263 247.99 333.825 248.559 333.403C251.307 331.373 253.909 328.958 254.882 327.192C256.305 324.612 256.191 323.859 257.751 322.23C258.431 321.521 259.432 320.641 261.02 319.37C262.324 318.326 263.037 317.451 263.462 316.53C264.731 313.764 263.374 310.589 267.49 301.199C271.863 291.219 261.934 288.907 253.092 289.089C250.847 289.138 248.676 289.343 246.822 289.627Z" fill="#A170E8"/>
<path d="M243.291 290.399C237.077 292.028 235.31 294.87 233.554 297.921C231.502 301.486 228.727 302.364 222.743 309.604C216.76 316.844 218.565 312.288 217.493 319.671C216.42 327.054 216.788 326.889 221.227 328.639C225.666 330.389 223.836 334.514 235.739 338.126C240.384 339.534 242.947 338.748 244.345 337.264C244.351 337.259 244.355 337.255 244.359 337.249C245.162 336.391 246.013 335.559 246.929 334.771C245.11 334.03 243.389 333.339 242.413 332.907C239.653 331.687 238.369 333.49 237.912 328.681C237.454 323.872 242.526 321.504 237.445 320.764C232.362 320.026 236.345 319.792 231.139 319.923C225.933 320.055 221.268 323.436 225.242 317.159C229.216 310.884 231.396 312.484 233.891 307.675C236.388 302.866 234.513 309.365 238.172 297.754C239.16 294.619 241.053 292.223 243.291 290.399Z" fill="#7253AD"/>
<path d="M246.822 289.628C245.797 289.785 244.86 289.964 244.004 290.166C243.627 291.666 243.697 293.062 245.507 292.61C249.103 291.71 253.045 290.787 254.358 292.438C255.673 294.088 257.598 294.322 257.78 297.419C257.963 300.517 258.306 297.494 257.024 302.265C255.741 307.036 256.597 309.749 256.597 309.749C256.597 309.749 259.887 306.621 257.227 311.611C254.568 316.602 250.634 317.694 254.079 320.084C255.59 321.135 256.811 321.77 257.751 322.232C258.431 321.523 259.432 320.643 261.02 319.372C262.323 318.328 263.037 317.453 263.461 316.532C264.731 313.766 263.374 310.591 267.489 301.201C271.863 291.221 261.934 288.909 253.091 289.091C250.847 289.14 248.675 289.345 246.822 289.628Z" fill="#A67FDD"/>
<path d="M253.416 307.063C252.154 306.959 251.181 307.881 251.365 308.753C251.549 309.701 252.373 310.39 253.062 310.276C253.753 310.17 254.515 309.497 254.906 308.782C255.278 307.817 254.671 306.972 253.416 307.063Z" fill="#493684"/>
<path d="M237.635 306.984C237.359 307.003 237.137 307.215 237.075 307.453C237.012 307.716 237.263 307.774 237.569 307.783C237.861 307.824 238.219 307.864 238.2 307.526C238.143 307.203 237.892 306.958 237.635 306.984Z" fill="#493684"/>
<path d="M243.558 307.085C243.288 307.067 243.056 307.257 243.038 307.511C243.022 307.763 243.226 307.984 243.496 308.001C243.766 308.019 244 307.827 244.016 307.575C244.033 307.322 243.828 307.102 243.558 307.085Z" fill="#493684"/>
<path d="M254.727 301.425C254.48 301.409 254.268 301.563 254.255 301.772C254.241 301.979 254.429 302.162 254.677 302.178C254.924 302.194 255.136 302.038 255.149 301.83C255.163 301.623 254.973 301.441 254.727 301.425Z" fill="#493684"/>
<path d="M254.293 301.637C254.204 301.7 254.145 301.792 254.138 301.898C254.125 302.107 254.313 302.288 254.56 302.304C254.752 302.317 254.922 302.227 254.995 302.088C254.91 302.148 254.798 302.182 254.676 302.174C254.43 302.157 254.241 301.976 254.255 301.767C254.258 301.722 254.271 301.677 254.293 301.637Z" fill="#BA9EEF"/>
<path d="M246.266 295.885C244.223 296.177 242.749 297.67 242.974 299.22C243.197 300.768 245.036 301.787 247.079 301.495C249.121 301.203 250.595 299.71 250.371 298.16C250.147 296.612 248.309 295.593 246.266 295.885Z" fill="#493684"/>
<path d="M243.069 298.195C242.447 298.804 242.119 299.582 242.234 300.371C242.458 301.921 244.296 302.94 246.339 302.648C247.924 302.42 249.168 301.47 249.54 300.332C248.946 300.917 248.08 301.349 247.079 301.492C245.038 301.785 243.199 300.765 242.974 299.217C242.925 298.87 242.958 298.525 243.069 298.195Z" fill="#BA9EEF"/>
<path d="M253.092 289.091C253.804 289.496 254.866 289.885 256.345 290.739C259.211 292.389 257.934 291.164 262.696 292.353C267.458 293.544 262.843 293.38 263.3 294.872C263.757 296.365 264.676 296.468 265.374 297.982C266.071 299.495 265.261 299.025 264.565 300.492C263.871 301.959 263.458 302.325 263.539 305.171C263.62 308.018 263.706 308.009 263.755 308.835C263.804 309.663 262.203 311.983 262.334 314.204C262.388 315.116 262.858 315.895 263.462 316.532C264.732 313.766 263.376 310.591 267.49 301.201C271.864 291.22 261.934 288.91 253.092 289.091Z" fill="#BA9EEF"/>
<path d="M305.79 23.1497C303.19 23.1118 300.946 24.1552 297.57 23.7962C297.422 23.7801 297.27 23.7612 297.117 23.7393C291.151 22.8972 293.292 27.3702 286.068 36.1527C278.84 44.9322 282.757 39.804 279.415 46.1435C276.074 52.483 276.346 52.2422 276.425 59.8046C276.502 67.367 276.553 66.0901 279.377 70.0596C282.202 74.0334 281.369 78.2816 286.804 82.7006C292.237 87.1196 290.095 83.2698 294.28 83.1326C298.467 82.9969 298.466 83.3704 301.57 87.2655C301.61 87.3166 301.651 87.3677 301.697 87.4158C304.777 91.0599 308.598 87.3983 313.364 86.4103C316.264 85.8076 318.112 83.388 319.123 81.5506C319.794 80.3291 320.609 79.1981 321.551 78.1707V78.1693C321.861 77.8336 322.182 77.5082 322.514 77.1973C323.753 76.0386 325.169 74.6376 325.986 73.562C327.527 71.5335 328.591 70.2318 330.631 67.0635C330.809 66.7833 330.998 66.49 331.195 66.1777C333.613 62.3468 333.032 59.1114 332.243 48.5616C331.453 38.0119 324.077 40.6592 322.758 34.6904C321.437 28.7216 318.399 29.9547 311.965 25.457C311.077 24.8367 310.265 24.3697 309.509 24.0268C308.121 23.3919 306.923 23.1687 305.79 23.1497Z" fill="#7908FF"/>
<path d="M285.648 35.8443C278.421 44.6238 282.338 39.4956 278.996 45.8351C275.654 52.1746 275.927 51.9338 276.005 59.4962C276.084 67.0587 276.133 65.7817 278.957 69.7512C281.782 73.725 280.951 77.9733 286.384 82.3922C291.817 86.8112 289.675 82.9614 293.862 82.8242C298.048 82.6885 298.047 83.0621 301.15 86.9571C301.19 87.0082 301.231 87.0578 301.278 87.1074C302.3 85.4788 303.238 83.5699 300.669 82.2944C297.164 80.5534 297.104 81.575 295.232 78.3921C293.358 75.2092 296.243 78.7073 295.505 73.7965C294.766 68.8858 290.504 71.2018 288.479 70.5713C286.454 69.9424 277.266 72.7414 286.455 65.5861C295.646 58.4323 298.065 56.7803 298.065 56.7803C298.065 56.7803 301.843 53.9244 299.077 52.7393C296.313 51.5543 295.42 53.5522 292.399 52.3526C289.377 51.153 289.196 49.8615 290.95 46.3765C292.704 42.8901 293.306 42.9251 294.661 38.9046C296.016 34.884 298.813 37.7794 296.788 30.573C296.056 27.9695 296.56 25.5791 297.151 23.4878C297.002 23.4718 296.852 23.4528 296.697 23.4309C290.731 22.5888 292.874 27.0618 285.648 35.8443Z" fill="#570DBF"/>
<path d="M561.095 67.6301C559.002 66.4655 556.733 66.3371 554.151 64.5727C554.037 64.4954 553.923 64.4137 553.808 64.329C549.337 61.0425 549.137 65.6176 539.48 69.6148C529.824 73.6091 535.217 71.1428 529.765 74.8452C524.313 78.5476 524.638 78.4703 521.429 84.6594C518.222 90.8472 518.816 89.8285 519.386 94.2913C519.958 98.7569 517.445 101.851 519.939 107.815C522.432 113.78 522.36 109.714 525.815 111.427C529.267 113.142 529.104 113.445 529.936 117.967C529.946 118.026 529.958 118.086 529.974 118.146C530.895 122.454 535.576 121.139 539.867 122.413C542.479 123.187 545.024 122.024 546.638 120.97C547.711 120.268 548.861 119.702 550.069 119.277L550.071 119.276C550.466 119.137 550.868 119.013 551.272 118.905C552.776 118.502 554.531 117.978 555.659 117.46C557.785 116.481 559.212 115.886 562.236 114.196C562.502 114.047 562.782 113.889 563.075 113.721C566.694 111.658 567.623 108.771 571.547 99.8412C575.471 90.9114 568.346 89.8519 569.858 84.4187C571.37 78.9854 568.374 78.6644 565.104 72.1994C564.651 71.3077 564.195 70.5736 563.73 69.9651C562.88 68.8443 562.005 68.1394 561.095 67.6301Z" fill="#A170E8"/>
<path d="M540.882 98.4847C539.661 97.5069 537.826 97.771 536.786 99.0757C535.744 100.38 535.891 102.231 537.113 103.209C538.333 104.188 540.167 103.924 541.209 102.619C542.25 101.314 542.104 99.4624 540.882 98.4847Z" fill="#493684"/>
<path d="M537.593 98.3564C536.834 98.4527 536.097 98.8482 535.565 99.5137C534.524 100.818 534.67 102.67 535.892 103.648C536.839 104.407 538.156 104.419 539.185 103.775C538.459 103.868 537.711 103.687 537.115 103.209C535.893 102.23 535.747 100.379 536.788 99.0744C537.021 98.7811 537.294 98.5403 537.593 98.3564Z" fill="#BA9EEF"/>
<path d="M553.219 94.6593C552.583 94.1091 551.574 93.95 551.214 94.4813C550.87 95.0256 551.586 96.2558 553.083 97.4248C554.616 98.6186 555.791 98.8973 555.251 97.7181C554.698 96.5302 553.815 95.1803 553.219 94.6593Z" fill="#493684"/>
<path d="M551.537 94.2237C551.118 94.1507 550.715 94.2062 550.498 94.4542C550.058 94.9285 550.582 96.0216 552.167 97.2533C553.384 98.2004 554.679 98.8061 554.924 98.4631C554.507 98.3829 553.797 97.9859 553.082 97.427C551.585 96.258 550.868 95.0278 551.213 94.4834C551.286 94.3579 551.398 94.2747 551.537 94.2237Z" fill="#BA9EEF"/>
<path d="M538.01 110.551C537.714 110.313 537.267 110.378 537.013 110.694C536.761 111.012 536.796 111.462 537.093 111.7C537.39 111.938 537.836 111.873 538.089 111.557C538.342 111.239 538.306 110.789 538.01 110.551Z" fill="#493684"/>
<path d="M537.208 110.521C537.024 110.544 536.845 110.641 536.715 110.803C536.462 111.119 536.498 111.57 536.794 111.808C537.024 111.992 537.345 111.995 537.595 111.839C537.418 111.861 537.237 111.817 537.091 111.701C536.795 111.462 536.759 111.013 537.013 110.696C537.07 110.624 537.135 110.566 537.208 110.521Z" fill="#BA9EEF"/>
<path d="M550.143 103.44C549.846 103.202 549.4 103.266 549.146 103.583C548.894 103.901 548.929 104.35 549.226 104.588C549.523 104.826 549.969 104.762 550.222 104.445C550.475 104.127 550.44 103.678 550.143 103.44Z" fill="#493684"/>
<path d="M549.346 103.41C549.162 103.434 548.983 103.53 548.853 103.692C548.6 104.009 548.635 104.46 548.931 104.697C549.162 104.881 549.483 104.884 549.733 104.728C549.556 104.751 549.375 104.706 549.229 104.591C548.933 104.353 548.896 103.902 549.15 103.585C549.207 103.514 549.273 103.456 549.346 103.41Z" fill="#BA9EEF"/>
<path d="M546.376 105.216C546.264 105.126 546.093 105.151 545.996 105.27C545.9 105.391 545.913 105.564 546.027 105.653C546.139 105.745 546.31 105.72 546.407 105.599C546.503 105.478 546.488 105.307 546.376 105.216Z" fill="#493684"/>
<path d="M546.07 105.201C546 105.21 545.932 105.247 545.882 105.308C545.786 105.429 545.8 105.6 545.913 105.69C546 105.762 546.123 105.762 546.218 105.703C546.151 105.711 546.081 105.695 546.027 105.651C545.913 105.56 545.9 105.388 545.996 105.268C546.018 105.241 546.043 105.219 546.07 105.201Z" fill="#BA9EEF"/>
<path d="M540.104 114.915C539.992 114.825 539.821 114.85 539.724 114.969C539.628 115.091 539.643 115.263 539.755 115.353C539.868 115.444 540.038 115.419 540.135 115.298C540.231 115.177 540.216 115.006 540.104 114.915Z" fill="#493684"/>
<path d="M539.798 114.903C539.728 114.911 539.66 114.948 539.61 115.009C539.514 115.13 539.529 115.301 539.641 115.391C539.728 115.461 539.851 115.463 539.946 115.405C539.879 115.412 539.81 115.396 539.755 115.352C539.641 115.262 539.628 115.089 539.724 114.968C539.746 114.942 539.771 114.92 539.798 114.903Z" fill="#A170E8"/>
<path d="M539.274 69.179C529.617 73.1733 535.01 70.7069 529.559 74.4093C524.107 78.1118 524.432 78.0344 521.223 84.2236C518.015 90.4128 518.609 89.3941 519.18 93.8554C519.752 98.3211 517.239 101.415 519.733 107.379C522.226 113.345 522.154 109.278 525.607 110.993C529.061 112.706 528.898 113.01 529.73 117.532C529.74 117.591 529.752 117.65 529.768 117.71C531.302 116.83 532.888 115.686 531.357 113.528C529.269 110.584 528.777 111.388 528.635 107.982C528.494 104.576 529.32 108.68 530.846 104.361C532.371 100.043 527.914 100.069 526.545 98.6742C525.177 97.2791 516.517 95.5512 527.062 93.7357C537.607 91.9203 540.282 91.6284 540.282 91.6284C540.282 91.6284 544.582 90.9513 542.852 88.7826C541.123 86.6126 539.535 87.8501 537.605 85.556C535.674 83.2619 536.087 82.1323 539.016 80.0615C541.946 77.9892 542.418 78.2796 545.256 75.5987C548.094 72.9179 549.11 76.4933 550.586 69.7452C551.12 67.3081 552.56 65.5816 553.945 64.1369C553.831 64.0595 553.717 63.9778 553.602 63.8932C549.131 60.6067 548.931 65.1818 539.274 69.179Z" fill="#7253AD"/>
<path d="M560.887 67.197C561.217 68.0172 561.477 69.1613 561.367 71.0308C561.036 76.7267 558.783 74.0502 556.101 76.6449C553.42 79.2368 552.223 82.3744 555.558 84.7926C558.891 87.2122 555.482 88.2513 556.823 89.9967C558.163 91.7436 555.963 93.5269 558.897 95.3292C561.832 97.1345 560.047 97.1432 558.462 100.043C556.878 102.941 555.631 103.467 553.218 105.303C550.802 107.137 552.23 107.829 555.069 110.314C557.909 112.795 552.922 113.973 552.287 114.872C551.651 115.772 550.529 116.375 549.863 118.843C550.259 118.704 550.66 118.58 551.064 118.472C552.569 118.069 554.323 117.545 555.451 117.027C557.579 116.048 559.005 115.452 562.029 113.762C562.294 113.614 562.574 113.456 562.868 113.288C566.487 111.225 567.417 108.338 571.339 99.4081C575.264 90.4783 568.139 89.4188 569.651 83.9856C571.163 78.5523 568.167 78.2313 564.896 71.7663C564.444 70.8746 563.987 70.1406 563.523 69.5305C562.672 68.4112 561.798 67.7063 560.887 67.197Z" fill="#A67FDD"/>
<path d="M563.524 69.5308C562.214 72.9632 561.683 74.9114 562.69 75.5302C564.036 76.3577 564.107 78.0608 564.247 81.4684C564.389 84.8745 566.069 84.247 566.946 87.3671C567.821 90.4887 568.229 93.136 567.875 96.2386C567.522 99.3412 565.915 100.566 564.452 102.25C562.991 103.932 559.922 108.869 560.898 110.577C561.578 111.763 562.264 112.613 562.029 113.763C562.295 113.612 562.573 113.455 562.868 113.287C566.486 111.225 567.416 108.338 571.34 99.4084C575.263 90.4785 568.14 89.4175 569.651 83.9843C571.163 78.5511 568.167 78.2315 564.895 71.7665C564.444 70.8734 563.988 70.1393 563.524 69.5308Z" fill="#BA9EEF"/>
<path d="M544.368 161.624C540.168 164.994 537.969 169.614 532.108 173.493C531.848 173.663 531.583 173.832 531.31 173.998C520.677 180.523 530.007 184.827 530.085 208.343C530.157 231.858 529.63 218.525 532.676 233.03C535.723 247.534 535.84 246.793 545.959 258.736C556.078 270.681 554.47 268.578 564.221 271.18C573.982 273.784 578.266 281.65 592.775 281.524C607.286 281.399 598.781 278.092 605.279 272.354C611.778 266.617 612.27 267.214 622.368 269.326C622.501 269.353 622.633 269.381 622.771 269.399C632.502 271.142 633.759 260.269 640.057 252.413C643.887 247.629 643.637 241.338 642.823 237.078C642.279 234.247 642.085 231.37 642.23 228.492L642.228 228.488C642.277 227.547 642.36 226.606 642.48 225.672C642.927 222.192 643.334 218.093 643.217 215.304C642.992 210.039 642.972 206.561 642.038 198.825C641.955 198.144 641.864 197.428 641.766 196.672C640.562 187.381 635.36 182.991 620.156 167.227C604.954 151.461 596.687 165.404 586.691 157.636C576.696 149.868 573.48 155.838 557.271 157.157C555.033 157.341 553.119 157.668 551.459 158.117C548.408 158.938 546.201 160.162 544.368 161.624Z" fill="#7908FF"/>
<path d="M591.233 229.962C588.161 231.676 587.15 235.721 588.973 238.999C590.795 242.278 594.762 243.546 597.834 241.833C600.906 240.12 601.917 236.074 600.095 232.797C598.272 229.517 594.305 228.249 591.233 229.962Z" fill="#3F0A91"/>
<path d="M588.166 236.71C587.72 238.372 587.913 240.246 588.844 241.918C590.666 245.196 594.634 246.466 597.706 244.752C600.088 243.424 601.234 240.689 600.772 237.998C600.351 239.592 599.338 240.994 597.835 241.832C594.763 243.545 590.793 242.276 588.971 238.998C588.562 238.264 588.295 237.489 588.166 236.71Z" fill="#BA9EEF"/>
<path d="M544.82 175.964C543.997 176.332 543.8 177.921 544.639 179.323C545.498 180.713 547.37 181.165 549.111 180.126C550.888 179.056 551.265 177.337 549.464 176.64C547.65 175.952 545.598 175.63 544.82 175.964Z" fill="#3F0A91"/>
<path d="M544.218 178.372C544.125 179.023 544.23 179.828 544.624 180.57C545.38 182.032 547.048 182.638 548.883 181.527C550.292 180.676 551.169 179.204 550.628 178.277C550.521 178.916 549.942 179.63 549.109 180.126C547.368 181.167 545.494 180.713 544.637 179.323C544.439 179.017 544.303 178.691 544.218 178.372Z" fill="#BA9EEF"/>
<path d="M593.793 201.012C592.108 201.871 590.923 203.836 591.718 205.038C592.553 206.217 595.718 205.771 599.419 203.646C603.205 201.467 604.784 199.256 601.874 199.38C598.939 199.52 595.381 200.214 593.793 201.012Z" fill="#3F0A91"/>
<path d="M591.452 204.144C590.944 204.955 590.716 205.843 591.045 206.505C591.659 207.823 594.372 207.661 598.282 205.405C601.282 203.674 603.643 201.492 603.141 200.69C602.616 201.492 601.19 202.63 599.42 203.646C595.719 205.773 592.551 206.219 591.717 205.04C591.517 204.783 591.439 204.474 591.452 204.144Z" fill="#BA9EEF"/>
<path d="M556.523 197.926C552.995 202.455 552.37 207.857 555.127 209.989C557.885 212.121 562.98 210.177 566.508 205.647C570.037 201.117 570.662 195.716 567.905 193.584C565.148 191.452 560.052 193.396 556.523 197.926Z" fill="#3F0A91"/>
<path d="M553.777 208.101C553.482 210.344 554.009 212.285 555.418 213.373C558.174 215.504 563.272 213.56 566.801 209.03C569.537 205.516 570.529 201.474 569.544 198.845C569.268 200.992 568.235 203.425 566.507 205.643C562.979 210.173 557.881 212.118 555.124 209.986C554.505 209.507 554.056 208.867 553.777 208.101Z" fill="#BA9EEF"/>
<path d="M573.508 191.932C572.865 192.758 572.751 193.743 573.253 194.133C573.756 194.521 574.686 194.166 575.33 193.34C575.973 192.514 576.087 191.529 575.584 191.14C575.082 190.751 574.152 191.106 573.508 191.932Z" fill="#3F0A91"/>
<path d="M573.01 193.79C572.956 194.2 573.052 194.553 573.309 194.751C573.812 195.141 574.742 194.785 575.385 193.959C575.885 193.318 576.066 192.581 575.886 192.101C575.835 192.494 575.647 192.937 575.331 193.342C574.688 194.168 573.758 194.522 573.255 194.134C573.142 194.047 573.061 193.93 573.01 193.79Z" fill="#BA9EEF"/>
<path d="M574.337 199.893C574 200.326 573.94 200.843 574.203 201.047C574.467 201.251 574.954 201.065 575.293 200.631C575.63 200.198 575.69 199.681 575.426 199.477C575.162 199.274 574.674 199.459 574.337 199.893Z" fill="#3F0A91"/>
<path d="M574.076 200.867C574.048 201.081 574.098 201.267 574.232 201.372C574.496 201.575 574.983 201.389 575.322 200.956C575.583 200.62 575.678 200.232 575.585 199.981C575.557 200.187 575.459 200.42 575.293 200.632C574.956 201.065 574.468 201.251 574.204 201.048C574.146 201.001 574.102 200.94 574.076 200.867Z" fill="#BA9EEF"/>
<path d="M613.844 246.206C613.097 246.622 612.852 247.607 613.294 248.404C613.738 249.201 614.702 249.51 615.45 249.093C616.197 248.677 616.442 247.693 616 246.895C615.556 246.098 614.592 245.79 613.844 246.206Z" fill="#3F0A91"/>
<path d="M613.1 247.845C612.992 248.249 613.039 248.704 613.265 249.112C613.709 249.908 614.673 250.218 615.42 249.8C616 249.478 616.278 248.812 616.166 248.159C616.062 248.545 615.817 248.887 615.451 249.091C614.704 249.507 613.739 249.199 613.296 248.401C613.196 248.223 613.131 248.035 613.1 247.845Z" fill="#BA9EEF"/>
<path d="M609.406 214.875C608.659 215.29 608.414 216.276 608.856 217.072C609.3 217.869 610.264 218.179 611.012 217.761C611.759 217.345 612.005 216.362 611.562 215.563C611.118 214.767 610.154 214.459 609.406 214.875Z" fill="#3F0A91"/>
<path d="M608.66 216.518C608.552 216.922 608.598 217.378 608.824 217.785C609.268 218.582 610.233 218.891 610.98 218.474C611.559 218.151 611.838 217.486 611.726 216.832C611.622 217.218 611.377 217.56 611.011 217.764C610.263 218.18 609.299 217.872 608.855 217.074C608.756 216.896 608.69 216.708 608.66 216.518Z" fill="#BA9EEF"/>
<path d="M609.885 224.238C609.6 224.397 609.507 224.771 609.676 225.075C609.844 225.378 610.212 225.495 610.495 225.337C610.779 225.178 610.873 224.805 610.705 224.501C610.536 224.198 610.169 224.079 609.885 224.238Z" fill="#3F0A91"/>
<path d="M609.602 224.864C609.561 225.017 609.579 225.191 609.665 225.346C609.833 225.649 610.2 225.767 610.485 225.608C610.705 225.486 610.81 225.232 610.768 224.984C610.729 225.131 610.635 225.261 610.497 225.338C610.212 225.496 609.846 225.379 609.677 225.076C609.639 225.009 609.614 224.937 609.602 224.864Z" fill="#BA9EEF"/>
<path d="M529.009 208.405C529.081 231.92 528.552 218.587 531.6 233.092C534.647 247.597 534.764 246.855 544.883 258.799C555.002 270.744 553.392 268.641 563.145 271.243C572.904 273.846 577.19 281.712 591.699 281.587C606.208 281.461 597.703 278.154 604.202 272.416C610.702 266.678 611.192 267.276 621.291 269.388C621.424 269.416 621.556 269.443 621.695 269.461C621.173 265.516 620.148 261.24 614.363 262.594C606.471 264.443 607.723 266.151 600.53 263.55C593.335 260.948 602.561 262.716 594.892 255.868C587.223 249.019 583.485 258.327 579.422 259.994C575.359 261.66 564.397 278.234 569.606 254.721C574.813 231.208 576.487 225.385 576.487 225.385C576.487 225.385 578.742 215.854 572.764 217.612C566.786 219.369 568.004 223.729 561.597 225.802C555.19 227.875 553.195 226.056 551.387 218.192C549.579 210.327 550.585 209.59 547.434 201.397C544.282 193.206 552.572 194.13 539.817 185.321C535.207 182.137 532.853 177.667 531.031 173.554C530.772 173.725 530.507 173.893 530.234 174.061C519.601 180.585 528.93 184.89 529.009 208.405Z" fill="#570DBF"/>
<path d="M543.291 161.688C545.274 161.698 547.871 162.13 551.66 163.946C563.207 169.48 555.731 171.896 558.835 179.691C561.934 187.481 567.432 192.64 575.292 187.748C583.155 182.86 582.408 190.846 587.174 189.536C591.945 188.229 593.775 194.325 600.015 189.747C606.261 185.168 604.761 188.893 609.432 194.657C614.105 200.421 614.133 203.465 615.89 210.054C617.641 216.648 620.297 214.26 627.873 210.457C635.444 206.65 633.642 218.041 634.968 220.127C636.298 222.218 636.593 225.068 641.15 228.552C641.2 227.609 641.283 226.669 641.403 225.735C641.849 222.256 642.256 218.157 642.14 215.368C641.915 210.102 641.895 206.625 640.961 198.889C640.877 198.207 640.787 197.492 640.689 196.736C639.485 187.444 634.283 183.055 619.08 167.29C603.878 151.525 595.609 165.468 585.614 157.7C575.619 149.931 572.402 155.902 556.193 157.221C553.956 157.405 552.041 157.732 550.382 158.18C547.331 159 545.124 160.226 543.291 161.688Z" fill="#843AF9"/>
<path d="M550.384 158.179C556.397 163.825 559.99 166.587 562.134 165.015C564.998 162.913 568.596 164.215 575.789 166.816C582.984 169.416 583.111 165.386 590.336 166.21C597.564 167.039 603.407 168.438 609.55 171.811C615.692 175.184 616.866 179.575 619.116 184.055C621.369 188.528 629.009 199.12 633.384 198.536C636.429 198.129 638.774 197.419 640.961 198.887C640.878 198.205 640.789 197.49 640.691 196.736C639.487 187.442 634.285 183.054 619.081 167.289C603.879 151.524 595.61 165.466 585.615 157.698C575.621 149.929 572.403 155.9 556.194 157.219C553.957 157.403 552.044 157.73 550.384 158.179Z" fill="#A973FF"/>
<path d="M367.618 209.938C362.244 210.262 357.779 212.762 350.754 212.542C350.445 212.532 350.131 212.516 349.81 212.494C337.363 211.678 342.491 220.58 328.97 239.82C315.443 259.055 322.715 247.866 316.821 261.466C310.928 275.066 311.452 274.527 312.81 290.123C314.171 305.718 314.071 303.072 320.528 310.83C326.99 318.594 325.943 327.49 337.859 335.771C349.775 344.051 344.743 336.438 353.362 335.51C361.981 334.58 362.038 335.352 369.06 342.91C369.152 343.009 369.244 343.109 369.348 343.202C376.283 350.248 383.59 342.099 393.27 339.326C399.16 337.633 402.591 332.355 404.387 328.407C405.578 325.782 407.081 323.321 408.864 321.056V321.052C409.448 320.31 410.058 319.591 410.697 318.898C413.07 316.316 415.772 313.206 417.288 310.861C420.147 306.435 422.139 303.585 425.846 296.73C426.171 296.126 426.513 295.489 426.869 294.817C431.254 286.536 429.544 279.947 426.243 258.298C422.941 236.646 408.138 243.25 404.467 231.134C400.797 219.02 394.723 222.034 380.729 213.746C378.797 212.603 377.047 211.766 375.433 211.173C372.468 210.079 369.961 209.804 367.618 209.938Z" fill="#7908FF"/>
<path d="M366.388 292.793C362.892 292.416 359.728 295.134 359.322 298.862C358.916 302.591 361.42 305.92 364.917 306.296C368.415 306.672 371.578 303.954 371.985 300.225C372.391 296.497 369.885 293.169 366.388 292.793Z" fill="#3F0A91"/>
<path d="M359.991 296.531C358.667 297.629 357.741 299.27 357.533 301.173C357.128 304.901 359.633 308.23 363.13 308.607C365.843 308.899 368.357 307.328 369.535 304.865C368.27 305.922 366.634 306.482 364.922 306.297C361.425 305.92 358.92 302.591 359.325 298.863C359.416 298.028 359.645 297.241 359.991 296.531Z" fill="#BA9EEF"/>
<path d="M359.702 221.903C358.817 221.728 357.739 222.911 357.613 224.54C357.511 226.17 358.778 227.622 360.799 227.778C362.868 227.933 364.169 226.746 363.1 225.137C362.019 223.529 360.53 222.079 359.702 221.903Z" fill="#3F0A91"/>
<path d="M357.824 223.52C357.372 223.999 356.992 224.715 356.886 225.547C356.658 227.179 357.67 228.637 359.809 228.79C361.449 228.911 363.018 228.217 363.11 227.147C362.655 227.606 361.769 227.855 360.803 227.777C358.782 227.621 357.513 226.168 357.616 224.539C357.632 224.174 357.709 223.83 357.824 223.52Z" fill="#BA9EEF"/>
<path d="M385.206 270.641C383.335 270.368 381.232 271.286 381.185 272.73C381.185 274.173 384.028 275.638 388.276 276.041C392.625 276.449 395.191 275.558 392.745 273.979C390.267 272.397 386.963 270.907 385.206 270.641Z" fill="#3F0A91"/>
<path d="M381.484 271.844C380.601 272.213 379.902 272.806 379.786 273.535C379.527 274.966 381.835 276.402 386.33 276.819C389.779 277.14 392.966 276.723 393.02 275.777C392.128 276.13 390.307 276.235 388.274 276.041C384.026 275.638 381.183 274.173 381.182 272.728C381.168 272.403 381.282 272.107 381.484 271.844Z" fill="#BA9EEF"/>
<path d="M356.566 246.59C351.069 248.25 347.438 252.297 348.456 255.63C349.475 258.963 354.758 260.322 360.255 258.662C365.753 257.003 369.384 252.956 368.365 249.623C367.345 246.288 362.064 244.931 356.566 246.59Z" fill="#3F0A91"/>
<path d="M348.449 253.312C346.913 254.973 346.222 256.862 346.742 258.563C347.761 261.896 353.045 263.254 358.542 261.596C362.807 260.307 365.952 257.581 366.665 254.868C365.2 256.46 362.951 257.85 360.259 258.661C354.763 260.32 349.478 258.963 348.46 255.63C348.23 254.883 348.235 254.099 348.449 253.312Z" fill="#BA9EEF"/>
<path d="M373.895 251.511C372.893 251.813 372.23 252.552 372.415 253.16C372.602 253.767 373.565 254.015 374.568 253.713C375.571 253.41 376.233 252.673 376.046 252.064C375.861 251.456 374.898 251.209 373.895 251.511Z" fill="#3F0A91"/>
<path d="M372.416 252.736C372.136 253.039 372.01 253.384 372.104 253.693C372.291 254.302 373.254 254.55 374.256 254.246C375.034 254.011 375.609 253.515 375.739 253.019C375.472 253.309 375.062 253.563 374.57 253.712C373.568 254.014 372.604 253.766 372.418 253.159C372.377 253.022 372.377 252.879 372.416 252.736Z" fill="#BA9EEF"/>
<path d="M369.974 258.487C369.449 258.647 369.101 259.033 369.199 259.351C369.295 259.671 369.8 259.801 370.327 259.642C370.853 259.483 371.2 259.096 371.104 258.778C371.006 258.458 370.499 258.328 369.974 258.487Z" fill="#3F0A91"/>
<path d="M369.197 259.128C369.05 259.287 368.984 259.468 369.033 259.63C369.131 259.948 369.636 260.08 370.162 259.921C370.57 259.798 370.871 259.537 370.939 259.277C370.799 259.429 370.585 259.562 370.326 259.64C369.801 259.798 369.295 259.668 369.198 259.35C369.176 259.279 369.176 259.203 369.197 259.128Z" fill="#BA9EEF"/>
<path d="M389.942 290.977C389.091 290.885 388.322 291.546 388.224 292.454C388.125 293.36 388.733 294.169 389.584 294.261C390.435 294.352 391.204 293.691 391.302 292.785C391.401 291.877 390.792 291.069 389.942 290.977Z" fill="#3F0A91"/>
<path d="M388.383 291.886C388.061 292.153 387.836 292.553 387.786 293.016C387.687 293.922 388.297 294.732 389.147 294.822C389.806 294.894 390.418 294.512 390.705 293.913C390.397 294.17 389.999 294.306 389.583 294.261C388.732 294.17 388.122 293.36 388.221 292.454C388.243 292.25 388.3 292.058 388.383 291.886Z" fill="#BA9EEF"/>
<path d="M384.922 298.897C384.598 298.862 384.306 299.113 384.268 299.459C384.23 299.803 384.462 300.111 384.786 300.146C385.108 300.181 385.402 299.93 385.44 299.584C385.478 299.24 385.246 298.932 384.922 298.897Z" fill="#3F0A91"/>
<path d="M384.329 299.241C384.207 299.343 384.121 299.495 384.102 299.67C384.064 300.016 384.296 300.324 384.62 300.359C384.871 300.385 385.104 300.241 385.212 300.013C385.096 300.109 384.944 300.162 384.786 300.144C384.462 300.109 384.23 299.801 384.268 299.457C384.277 299.38 384.297 299.307 384.329 299.241Z" fill="#BA9EEF"/>
<path d="M328.054 239.25C314.527 258.484 321.799 247.297 315.906 260.897C310.011 274.496 310.535 273.958 311.895 289.553C313.254 305.148 313.156 302.502 319.613 310.261C326.073 318.025 325.028 326.92 336.943 335.2C348.858 343.481 343.826 335.869 352.445 334.939C361.066 334.009 361.121 334.783 368.144 342.341C368.237 342.439 368.329 342.538 368.431 342.631C370.283 339.111 371.918 335.03 366.414 332.792C358.905 329.742 358.94 331.86 354.57 325.58C350.201 319.3 356.71 326.073 354.407 316.053C352.105 306.033 343.675 311.469 339.396 310.483C335.117 309.496 316.595 316.691 334.431 300.508C352.266 284.324 356.996 280.538 356.996 280.538C356.996 280.538 364.342 274.062 358.448 272.043C352.553 270.025 351.028 274.286 344.601 272.277C338.174 270.267 337.596 267.63 340.664 260.167C343.733 252.702 344.979 252.682 347.141 244.175C349.3 235.667 355.533 241.211 350.211 226.651C348.289 221.39 348.949 216.382 349.837 211.971C349.528 211.961 349.214 211.945 348.895 211.925C336.446 211.107 341.575 220.01 328.054 239.25Z" fill="#570DBF"/>
<path d="M366.705 209.365C368.318 210.518 370.187 212.371 372.232 216.043C378.459 227.231 370.961 224.884 368.992 233.039C367.022 241.188 368.528 248.575 377.769 249.124C387.011 249.677 381.788 255.764 386.436 257.448C391.084 259.138 389.055 265.17 396.794 265.04C404.538 264.909 401.161 267.084 401.644 274.488C402.127 281.891 400.392 284.393 398.019 290.786C395.64 297.179 399.186 296.765 407.566 298.038C415.947 299.304 407.894 307.561 407.772 310.031C407.649 312.504 406.244 315.001 407.951 320.478C408.535 319.737 409.146 319.017 409.784 318.324C412.159 315.743 414.858 312.633 416.375 310.288C419.234 305.861 421.226 303.011 424.932 296.156C425.258 295.552 425.599 294.916 425.955 294.243C430.341 285.963 428.63 279.374 425.329 257.724C422.028 236.073 407.224 242.677 403.554 230.561C399.884 218.447 393.81 221.46 379.816 213.173C377.885 212.03 376.134 211.191 374.52 210.6C371.556 209.505 369.047 209.231 366.705 209.365Z" fill="#843AF9"/>
<path d="M374.521 210.598C376.167 218.682 377.504 223.01 380.161 222.967C383.714 222.905 385.898 226.046 390.268 232.326C394.637 238.604 397.07 235.387 402.491 240.235C407.911 245.088 411.873 249.606 414.938 255.907C418.001 262.209 416.424 266.47 415.672 271.428C414.926 276.381 415.043 289.439 418.951 291.491C421.672 292.917 423.996 293.693 424.933 296.155C425.259 295.551 425.599 294.915 425.956 294.242C430.342 285.963 428.631 279.374 425.33 257.723C422.029 236.073 407.225 242.675 403.555 230.56C399.885 218.445 393.811 221.461 379.817 213.171C377.886 212.03 376.135 211.191 374.521 210.598Z" fill="#A973FF"/>
<path d="M54.8193 74.9731C49.6138 75.2868 45.2911 77.7079 38.4876 77.4949C38.1884 77.4832 37.8834 77.4686 37.574 77.4482C25.5182 76.6572 30.4859 85.2791 17.391 103.911C4.2917 122.538 11.3331 111.704 5.62556 124.873C-0.0805607 138.044 0.42584 137.523 1.74219 152.626C3.05854 167.727 2.96368 165.166 9.2156 172.679C15.4734 180.198 14.4606 188.814 25.9998 196.832C37.539 204.851 32.6662 197.478 41.0137 196.579C49.3599 195.679 49.4138 196.427 56.216 203.746C56.305 203.842 56.394 203.937 56.4932 204.029C63.2092 210.852 70.2872 202.961 79.6607 200.274C85.3639 198.635 88.6869 193.523 90.4279 189.7C91.5808 187.159 93.0358 184.776 94.7622 182.582V182.578C95.3284 181.86 95.9195 181.164 96.5382 180.491C98.8367 177.991 101.452 174.979 102.92 172.708C105.69 168.422 107.618 165.662 111.208 159.024C111.523 158.439 111.853 157.823 112.199 157.172C116.445 149.153 114.789 142.772 111.592 121.804C108.396 100.837 94.0588 107.232 90.5052 95.5005C86.9502 83.7672 81.0675 86.6859 67.5173 78.6609C65.6464 77.5547 63.9506 76.7418 62.3876 76.1683C59.5156 75.1088 57.0872 74.8432 54.8193 74.9731Z" fill="#7908FF"/>
<path d="M53.6251 155.212C50.2394 154.847 47.1747 157.48 46.7822 161.09C46.3881 164.701 48.8151 167.924 52.2008 168.289C55.588 168.653 58.6512 166.021 59.0452 162.409C59.4378 158.799 57.0123 155.575 53.6251 155.212Z" fill="#3F0A91"/>
<path d="M47.4275 158.83C46.1448 159.894 45.2487 161.483 45.0488 163.325C44.6547 166.937 47.0817 170.161 50.4674 170.525C53.0943 170.807 55.5299 169.286 56.6712 166.902C55.4453 167.925 53.8604 168.466 52.2026 168.288C48.8169 167.923 46.3899 164.7 46.7825 161.089C46.8715 160.279 47.0933 159.519 47.4275 158.83Z" fill="#BA9EEF"/>
<path d="M71.8467 133.757C70.0342 133.493 67.9984 134.382 67.9531 135.779C67.9531 137.178 70.7055 138.597 74.8194 138.986C79.0312 139.383 81.515 138.519 79.1465 136.988C76.7487 135.458 73.5483 134.014 71.8467 133.757Z" fill="#3F0A91"/>
<path d="M68.2453 134.924C67.3901 135.281 66.7144 135.855 66.6021 136.562C66.351 137.947 68.5868 139.337 72.9386 139.741C76.2791 140.052 79.3657 139.648 79.4182 138.733C78.5543 139.074 76.7899 139.176 74.8212 138.988C70.7073 138.598 67.9534 137.178 67.9534 135.78C67.9403 135.465 68.0497 135.177 68.2453 134.924Z" fill="#BA9EEF"/>
<path d="M44.112 110.466C38.7882 112.073 35.2726 115.993 36.2591 119.221C37.2457 122.449 42.3607 123.763 47.6845 122.156C53.0083 120.549 56.5239 116.631 55.5373 113.403C54.5508 110.175 49.4357 108.86 44.112 110.466Z" fill="#3F0A91"/>
<path d="M36.2495 116.977C34.761 118.586 34.0926 120.414 34.5961 122.062C35.5826 125.29 40.7006 126.605 46.0229 124.998C50.1529 123.752 53.1986 121.112 53.8904 118.483C52.4719 120.026 50.293 121.37 47.6866 122.158C42.3628 123.765 37.2463 122.45 36.2598 119.222C36.0379 118.498 36.0423 117.739 36.2495 116.977Z" fill="#BA9EEF"/>
<path d="M57.0967 121.987C56.5873 122.141 56.2502 122.516 56.3451 122.825C56.4399 123.133 56.9288 123.259 57.4382 123.105C57.9475 122.952 58.2846 122.577 58.1897 122.269C58.0949 121.96 57.606 121.834 57.0967 121.987Z" fill="#3F0A91"/>
<path d="M56.3438 122.614C56.2008 122.768 56.1366 122.943 56.1848 123.1C56.2796 123.41 56.77 123.535 57.2793 123.382C57.6733 123.262 57.9652 123.01 58.0323 122.759C57.8951 122.906 57.6879 123.035 57.4384 123.111C56.929 123.264 56.4387 123.138 56.3453 122.829C56.3234 122.76 56.3234 122.687 56.3438 122.614Z" fill="#BA9EEF"/>
<path d="M62.4137 180.702C61.5906 180.613 60.8449 181.253 60.7501 182.132C60.6537 183.009 61.2433 183.793 62.0679 183.882C62.8909 183.971 63.6352 183.33 63.7315 182.453C63.8279 181.574 63.2368 180.791 62.4137 180.702Z" fill="#3F0A91"/>
<path d="M60.9051 181.581C60.5928 181.839 60.3754 182.226 60.3272 182.674C60.2309 183.552 60.8205 184.336 61.645 184.425C62.2828 184.494 62.8753 184.125 63.1525 183.544C62.8548 183.793 62.4696 183.925 62.0668 183.881C61.2422 183.792 60.6526 183.008 60.749 182.13C60.7694 181.934 60.8234 181.749 60.9051 181.581Z" fill="#BA9EEF"/>
<path d="M76.4318 153.453C75.6087 153.364 74.863 154.004 74.7681 154.883C74.6718 155.76 75.2614 156.544 76.0859 156.633C76.909 156.722 77.6533 156.081 77.7496 155.204C77.8459 154.325 77.2549 153.542 76.4318 153.453Z" fill="#3F0A91"/>
<path d="M74.9261 154.334C74.6138 154.592 74.3964 154.979 74.3482 155.427C74.2519 156.305 74.8415 157.089 75.666 157.178C76.3037 157.247 76.8963 156.877 77.1735 156.297C76.8758 156.546 76.4905 156.678 76.0878 156.634C75.2632 156.545 74.6736 155.761 74.77 154.883C74.7904 154.687 74.8444 154.502 74.9261 154.334Z" fill="#BA9EEF"/>
<path d="M71.5723 161.125C71.2585 161.092 70.9754 161.336 70.9389 161.67C70.9025 162.004 71.1272 162.302 71.441 162.335C71.7533 162.369 72.0378 162.125 72.0743 161.791C72.1108 161.458 71.8861 161.159 71.5723 161.125Z" fill="#3F0A91"/>
<path d="M70.9977 161.459C70.8795 161.558 70.7963 161.704 70.7773 161.875C70.7408 162.209 70.9656 162.507 71.2793 162.542C71.5216 162.568 71.7478 162.427 71.8529 162.206C71.739 162.301 71.5931 162.351 71.4399 162.335C71.1261 162.301 70.9014 162.002 70.9379 161.668C70.9466 161.593 70.967 161.523 70.9977 161.459Z" fill="#BA9EEF"/>
<path d="M71.3487 186.252C71.0349 186.218 70.7518 186.462 70.7153 186.796C70.6788 187.13 70.9036 187.428 71.2173 187.462C71.5296 187.495 71.8142 187.252 71.8492 186.917C71.8872 186.585 71.6624 186.286 71.3487 186.252Z" fill="#3F0A91"/>
<path d="M70.776 186.586C70.6578 186.685 70.5746 186.831 70.5556 187.002C70.5192 187.336 70.7439 187.634 71.0577 187.669C71.2999 187.693 71.5261 187.553 71.6312 187.333C71.5174 187.428 71.3714 187.477 71.2182 187.461C70.9044 187.428 70.6797 187.129 70.7162 186.794C70.7249 186.72 70.7454 186.65 70.776 186.586Z" fill="#BA9EEF"/>
<path d="M16.5037 103.361C3.40442 121.988 10.4459 111.154 4.73974 124.325C-0.967839 137.494 -0.461438 136.973 0.85491 152.076C2.17126 167.179 2.0764 164.617 8.32833 172.129C14.5861 179.648 13.5733 188.264 25.1125 196.282C36.6502 204.301 31.7789 196.928 40.125 196.029C48.4726 195.129 48.5266 195.878 55.3287 203.196C55.4177 203.293 55.5067 203.389 55.606 203.479C57.401 200.07 58.9844 196.116 53.6533 193.95C46.3798 190.996 46.4149 193.046 42.1842 186.965C37.952 180.884 44.255 187.443 42.0251 177.739C39.7952 168.036 31.6315 173.3 27.4883 172.345C23.3437 171.389 5.40667 178.357 22.6797 162.684C39.9513 147.012 44.5323 143.346 44.5323 143.346C44.5323 143.346 51.6467 137.074 45.9391 135.118C40.2301 133.164 38.7532 137.291 32.529 135.345C26.3048 133.399 25.7444 130.845 28.7171 123.617C31.6884 116.389 32.8953 116.368 34.988 108.13C37.0808 99.8922 43.1152 105.26 37.9622 91.1608C36.1001 86.0647 36.7393 81.2152 37.6003 76.9437C37.3011 76.9335 36.9961 76.9189 36.6867 76.8984C24.6309 76.1075 29.5971 84.7294 16.5037 103.361Z" fill="#570DBF"/>
<path d="M53.9326 74.4212C55.4941 75.5376 57.3052 77.3326 59.2856 80.8891C65.3157 91.7234 58.0539 89.4512 56.1465 97.3478C54.2391 105.24 55.697 112.394 64.6473 112.924C73.5976 113.461 68.5394 119.355 73.0401 120.985C77.5408 122.623 75.5765 128.464 83.0718 128.337C90.57 128.212 87.2996 130.318 87.768 137.488C88.2365 144.658 86.5553 147.08 84.2568 153.272C81.9539 159.463 85.3878 159.062 93.5033 160.293C101.619 161.521 93.8215 169.516 93.7018 171.908C93.5836 174.305 92.222 176.721 93.8755 182.026C94.4417 181.308 95.0328 180.612 95.6515 179.939C97.95 177.439 100.567 174.427 102.033 172.156C104.803 167.87 106.731 165.111 110.321 158.472C110.636 157.887 110.966 157.271 111.312 156.62C115.559 148.601 113.902 142.22 110.706 121.252C107.509 100.286 93.1735 106.68 89.6185 94.9472C86.0649 83.2153 80.1808 86.1341 66.6306 78.109C64.7597 77.0028 63.0639 76.1899 61.5009 75.6164C58.6303 74.5569 56.2005 74.2913 53.9326 74.4212Z" fill="#843AF9"/>
<path d="M61.5 75.6184C63.0936 83.4464 64.3881 87.6392 66.9624 87.5954C70.4021 87.537 72.5182 90.5783 76.7489 96.6595C80.9811 102.741 83.3365 99.6235 88.5858 104.318C93.8366 109.019 97.6719 113.394 100.64 119.497C103.609 125.599 102.079 129.727 101.352 134.527C100.629 139.324 100.742 151.969 104.528 153.957C107.162 155.338 109.414 156.089 110.32 158.474C110.635 157.889 110.965 157.273 111.311 156.622C115.558 148.603 113.901 142.222 110.705 121.254C107.508 100.287 93.1726 106.682 89.6176 94.9491C86.0641 83.2173 80.1799 86.136 66.6297 78.1109C64.7588 77.0048 63.063 76.1919 61.5 75.6184Z" fill="#A973FF"/>
<path d="M476.555 211.742C474.18 211.132 471.896 211.593 468.881 210.518C468.748 210.47 468.614 210.42 468.478 210.366C463.195 208.275 464.176 212.85 455.625 219.303C447.075 225.755 451.79 221.92 447.336 226.993C442.881 232.067 443.183 231.906 441.595 238.856C440.006 245.807 440.333 244.645 442.047 248.909C443.765 253.176 442.069 256.888 446.078 262.14C450.088 267.392 448.969 263.389 452.836 264.189C456.704 264.989 456.621 265.332 458.61 269.589C458.634 269.644 458.661 269.699 458.693 269.755C460.715 273.777 465.022 271.264 469.606 271.411C472.396 271.5 474.62 269.691 475.951 268.23C476.834 267.258 477.829 266.401 478.918 265.669L478.92 265.666C479.276 265.426 479.641 265.199 480.014 264.987C481.405 264.201 483.01 263.229 483.994 262.423C485.852 260.904 487.114 259.945 489.678 257.492C489.904 257.274 490.141 257.047 490.389 256.804C493.446 253.827 493.626 250.732 495.218 240.886C496.811 231.039 489.471 231.836 489.572 226.072C489.672 220.309 486.618 220.767 481.708 215.223C481.03 214.458 480.388 213.849 479.772 213.368C478.638 212.479 477.589 212.011 476.555 211.742Z" fill="#A170E8"/>
<path d="M464.45 247.493C462.986 246.842 461.235 247.579 460.539 249.139C459.842 250.697 460.463 252.49 461.927 253.142C463.391 253.793 465.142 253.056 465.838 251.496C466.536 249.936 465.914 248.144 464.45 247.493Z" fill="#493684"/>
<path d="M461.154 248.217C460.426 248.508 459.795 249.091 459.44 249.886C458.743 251.446 459.365 253.238 460.828 253.889C461.964 254.396 463.273 254.064 464.128 253.162C463.432 253.443 462.644 253.457 461.927 253.139C460.463 252.488 459.842 250.695 460.539 249.135C460.696 248.786 460.904 248.476 461.154 248.217Z" fill="#BA9EEF"/>
<path d="M471.452 215.824C471.093 215.624 470.46 215.988 470.178 216.676C469.907 217.368 470.253 218.175 471.108 218.524C471.983 218.88 472.713 218.547 472.475 217.701C472.23 216.852 471.786 216.017 471.452 215.824Z" fill="#493684"/>
<path d="M470.411 216.264C470.148 216.409 469.884 216.667 469.721 217.013C469.394 217.689 469.629 218.461 470.535 218.826C471.23 219.107 472.007 219.024 472.197 218.575C471.934 218.71 471.516 218.694 471.107 218.525C470.253 218.176 469.906 217.369 470.179 216.677C470.236 216.521 470.318 216.383 470.411 216.264Z" fill="#BA9EEF"/>
<path d="M475.704 240.512C474.93 240.132 473.89 240.238 473.668 240.856C473.467 241.482 474.496 242.514 476.28 243.282C478.109 244.065 479.345 244.036 478.506 243.01C477.652 241.98 476.428 240.872 475.704 240.512Z" fill="#493684"/>
<path d="M473.922 240.516C473.487 240.552 473.101 240.711 472.95 241.012C472.637 241.596 473.437 242.541 475.328 243.348C476.779 243.969 478.218 244.233 478.374 243.83C477.938 243.859 477.134 243.65 476.28 243.283C474.494 242.515 473.466 241.483 473.668 240.857C473.707 240.714 473.798 240.602 473.922 240.516Z" fill="#BA9EEF"/>
<path d="M466.645 226.094C464.03 226.045 461.89 227.293 461.867 228.881C461.842 230.469 463.944 231.794 466.559 231.842C469.174 231.889 471.313 230.641 471.337 229.055C471.36 227.467 469.26 226.142 466.645 226.094Z" fill="#493684"/>
<path d="M462.188 227.87C461.291 228.375 460.727 229.097 460.714 229.907C460.691 231.495 462.792 232.822 465.407 232.868C467.436 232.906 469.18 232.164 469.869 231.087C469.011 231.571 467.842 231.86 466.562 231.837C463.947 231.789 461.845 230.463 461.868 228.876C461.874 228.52 461.985 228.181 462.188 227.87Z" fill="#BA9EEF"/>
<path d="M473.474 230.643C472.997 230.634 472.607 230.862 472.603 231.151C472.598 231.441 472.981 231.682 473.458 231.691C473.935 231.699 474.325 231.472 474.33 231.183C474.333 230.894 473.951 230.652 473.474 230.643Z" fill="#493684"/>
<path d="M472.657 230.969C472.494 231.061 472.392 231.193 472.389 231.341C472.384 231.63 472.768 231.872 473.244 231.881C473.615 231.887 473.933 231.752 474.058 231.555C473.902 231.644 473.689 231.697 473.456 231.692C472.978 231.684 472.594 231.441 472.599 231.152C472.6 231.087 472.621 231.025 472.657 230.969Z" fill="#BA9EEF"/>
<path d="M470.798 233.119C470.548 233.115 470.342 233.234 470.341 233.386C470.338 233.538 470.539 233.665 470.789 233.669C471.04 233.673 471.244 233.554 471.247 233.402C471.249 233.25 471.049 233.123 470.798 233.119Z" fill="#493684"/>
<path d="M470.371 233.288C470.284 233.336 470.23 233.407 470.229 233.482C470.228 233.636 470.429 233.763 470.678 233.767C470.873 233.77 471.039 233.698 471.105 233.596C471.023 233.643 470.912 233.671 470.789 233.668C470.538 233.663 470.338 233.536 470.34 233.385C470.34 233.351 470.352 233.318 470.371 233.288Z" fill="#BA9EEF"/>
<path d="M464.708 260.166C464.352 260.007 463.926 260.186 463.757 260.566C463.587 260.945 463.739 261.382 464.094 261.539C464.45 261.698 464.876 261.519 465.045 261.139C465.215 260.76 465.064 260.324 464.708 260.166Z" fill="#493684"/>
<path d="M463.906 260.344C463.729 260.414 463.576 260.557 463.488 260.75C463.319 261.129 463.471 261.566 463.827 261.723C464.103 261.846 464.421 261.766 464.629 261.547C464.46 261.615 464.268 261.618 464.094 261.541C463.738 261.383 463.586 260.947 463.757 260.567C463.795 260.483 463.844 260.407 463.906 260.344Z" fill="#BA9EEF"/>
<path d="M474.915 249.99C474.559 249.832 474.133 250.01 473.964 250.39C473.795 250.769 473.946 251.206 474.301 251.363C474.657 251.522 475.083 251.343 475.252 250.963C475.422 250.584 475.271 250.147 474.915 249.99Z" fill="#493684"/>
<path d="M474.114 250.166C473.937 250.238 473.784 250.38 473.696 250.572C473.527 250.952 473.679 251.388 474.035 251.546C474.311 251.67 474.629 251.589 474.836 251.369C474.668 251.438 474.476 251.441 474.302 251.363C473.946 251.206 473.794 250.769 473.965 250.39C474.001 250.305 474.052 250.229 474.114 250.166Z" fill="#BA9EEF"/>
<path d="M471.634 252.721C471.498 252.661 471.336 252.728 471.272 252.873C471.208 253.017 471.265 253.183 471.4 253.243C471.536 253.303 471.698 253.236 471.762 253.092C471.827 252.947 471.77 252.781 471.634 252.721Z" fill="#493684"/>
<path d="M471.327 252.791C471.26 252.819 471.202 252.871 471.168 252.946C471.104 253.09 471.162 253.255 471.297 253.316C471.402 253.363 471.523 253.332 471.602 253.249C471.537 253.274 471.464 253.275 471.399 253.246C471.263 253.186 471.206 253.02 471.27 252.876C471.285 252.843 471.304 252.816 471.327 252.791Z" fill="#BA9EEF"/>
<path d="M467.909 263.94C467.773 263.88 467.611 263.947 467.547 264.092C467.483 264.236 467.54 264.403 467.675 264.463C467.811 264.522 467.973 264.455 468.037 264.311C468.101 264.166 468.045 264 467.909 263.94Z" fill="#493684"/>
<path d="M467.605 264.007C467.538 264.035 467.479 264.088 467.446 264.162C467.381 264.307 467.44 264.472 467.574 264.533C467.679 264.58 467.8 264.549 467.88 264.466C467.816 264.49 467.742 264.492 467.676 264.463C467.54 264.403 467.484 264.237 467.548 264.092C467.562 264.06 467.581 264.032 467.605 264.007Z" fill="#BA9EEF"/>
<path d="M455.311 218.931C446.76 225.381 451.475 221.546 447.02 226.62C442.566 231.693 442.868 231.532 441.279 238.483C439.691 245.433 440.018 244.273 441.733 248.537C443.45 252.804 441.754 256.514 445.763 261.766C449.772 267.018 448.654 263.017 452.522 263.817C456.388 264.616 456.304 264.959 458.293 269.215C458.32 269.272 458.346 269.327 458.378 269.383C459.673 268.114 460.951 266.572 458.877 264.835C456.048 262.465 455.767 263.387 454.75 260.056C453.733 256.724 455.608 260.568 456.01 255.902C456.411 251.238 451.996 252.419 450.279 251.394C448.562 250.368 439.526 250.904 449.52 246.377C459.512 241.849 462.092 240.868 462.092 240.868C462.092 240.868 466.181 239.085 463.908 237.387C461.634 235.69 460.377 237.325 457.872 235.557C455.366 233.789 455.484 232.566 457.857 229.758C460.23 226.95 460.773 227.115 462.898 223.729C465.023 220.342 466.95 223.615 466.678 216.561C466.578 214.011 467.563 211.932 468.564 210.145C468.433 210.097 468.299 210.046 468.163 209.992C462.88 207.901 463.859 212.476 455.311 218.931Z" fill="#7253AD"/>
<path d="M476.239 211.368C476.777 212.093 477.329 213.157 477.702 215.034C478.839 220.753 475.916 218.69 473.923 221.95C471.931 225.209 471.553 228.621 475.483 230.147C479.411 231.677 476.297 233.587 478.078 234.965C479.856 236.347 478.134 238.679 481.508 239.702C484.884 240.726 483.115 241.198 482.291 244.474C481.466 247.752 480.364 248.594 478.442 251.034C476.519 253.474 478.114 253.789 481.57 255.51C485.026 257.227 480.382 259.685 479.983 260.737C479.585 261.794 478.626 262.679 478.603 265.292C478.959 265.052 479.324 264.825 479.697 264.613C481.088 263.827 482.693 262.855 483.677 262.049C485.535 260.53 486.797 259.571 489.361 257.118C489.588 256.9 489.824 256.673 490.072 256.43C493.129 253.453 493.309 250.358 494.901 240.512C496.495 230.665 489.154 231.462 489.255 225.698C489.355 219.935 486.301 220.393 481.392 214.849C480.713 214.083 480.071 213.475 479.455 212.994C478.321 212.105 477.272 211.637 476.239 211.368Z" fill="#A67FDD"/>
<path d="M479.454 212.995C479.038 216.728 479.013 218.792 480.172 219.143C481.721 219.613 482.23 221.278 483.247 224.61C484.264 227.942 485.769 226.887 487.441 229.746C489.114 232.606 490.199 235.116 490.649 238.276C491.097 241.435 489.817 243.062 488.8 245.107C487.784 247.15 486.011 252.827 487.419 254.261C488.399 255.26 489.299 255.921 489.362 257.119C489.587 256.901 489.823 256.674 490.071 256.432C493.13 253.454 493.308 250.359 494.9 240.513C496.494 230.666 489.153 231.463 489.254 225.7C489.354 219.936 486.3 220.394 481.391 214.85C480.714 214.085 480.071 213.477 479.454 212.995Z" fill="#BA9EEF"/>
</svg>
